<svg xmlns="http://www.w3.org/2000/svg" viewBox="0 0 240 64" width="1920" height="512">
  <defs>
    <linearGradient id="bg2" x1="0" y1="0" x2="1" y2="1">
      <stop offset="0%" stop-color="#13224a"/>
      <stop offset="100%" stop-color="#0b1530"/>
    </linearGradient>
    <linearGradient id="stroke2" x1="0" y1="0" x2="0" y2="1">
      <stop offset="0%" stop-color="#ffffff" stop-opacity="0.95"/>
      <stop offset="100%" stop-color="#ffffff" stop-opacity="0.75"/>
    </linearGradient>
    <radialGradient id="glow2" cx="0.5" cy="0.2" r="0.8">
      <stop offset="0%" stop-color="#ffffff" stop-opacity="0.18"/>
      <stop offset="60%" stop-color="#ffffff" stop-opacity="0"/>
    </radialGradient>
  </defs>
  <g transform="translate(4 12) scale(1)">
    <rect x="0.5" y="0.5" width="39" height="39" rx="9" fill="url(#bg2)"/>
    <rect x="0.5" y="0.5" width="39" height="39" rx="9" fill="url(#glow2)"/>
    <rect x="0.75" y="0.75" width="38.5" height="38.5" rx="8.75" fill="none" stroke="#ffffff" stroke-opacity="0.08"/>
    <path d="M 8 28 L 8 16 Q 8 12 12 12 Q 16 12 16 16 L 16 24 Q 16 25 17 25 Q 18 25 18 24 L 18 18 Q 18 14 22 14 Q 26 14 26 18 L 26 26 Q 26 27 27 27 Q 28 27 28 26 L 28 13"
          fill="none" stroke="url(#stroke2)" stroke-width="2.4" stroke-linecap="round" stroke-linejoin="round"/>
    <circle cx="28" cy="9.5" r="2" fill="#c4413c"/>
    <rect x="7" y="30.5" width="22" height="2" rx="1" fill="#c4413c"/>
    <rect x="7" y="30.5" width="9" height="2" rx="1" fill="#ffffff" opacity="0.25"/>
  </g>
  <text x="54" y="42" font-family="Georgia, 'Playfair Display', 'Times New Roman', serif" font-weight="700" font-size="28" letter-spacing="-0.5">
    <tspan fill="#0b1530">Debate</tspan><tspan fill="#c4413c">Mastery</tspan>
  </text>
</svg>
